<svg id="Layer_1" data-name="Layer 1" xmlns="http://www.w3.org/2000/svg" viewBox="0 0 1276.71 632.97"><defs><style>.cls-1{fill:#0197cc;}.cls-2{fill:#0198cc;}.cls-3{fill:#0298cd;}.cls-4{fill:#0198cd;}.cls-5{fill:#049acf;}.cls-6{fill:#0399ce;}.cls-7{fill:#049ace;}.cls-8{fill:#0499ce;}.cls-9{fill:#059acf;}.cls-10{fill:#089cd0;}.cls-11{fill:#099dd1;}.cls-12{fill:#11a2d5;}.cls-13{fill:#069cd1;}.cls-14{fill:#12a4d8;}.cls-15{fill:#099ed3;}.cls-16{fill:#fefefe;}.cls-17{fill:#fdfefe;}.cls-18{fill:#e7f6fb;}</style></defs><title>world-map</title><path class="cls-1" d="M809.26,47.79c-.09-.49-.42-1.2-.21-1.44,2.21-2.57,2.79-4.9-2.06-6.78,5-1.54,5.07,1.71,6,3.6,1.56,3.25,3.47,5.45,8.48,3.63-2.26-1.23-5.38-.79-4.78-3.25s3.27-1.66,5.14-1.64a16.11,16.11,0,0,1,7.6,2.19c1.73,1,3.34,1.39,5.19-1-4.73.62-7-2.54-10.84-5.7h14.88c-1.84-4.46-1.89-4.68,2.43-5.61,7.46-1.6,14.88-3.58,22.66-3,3,.24,6.42.72,7.18-3.78.2-1.15,1.58-1.06,2.53-1.2,5-.79,10.21-3,14.66,1.86.64.7,2.54.33,3.87.34,5.49,0,10.94.16,16.29,1.79,1.77.54,3.27,1,3.69,2.79.51,2.17-1.58,2.68-2.9,3.5-2.2,1.37-4.52,2.55-8,4.51,4.69-.44,7.83-.15,10.41-3.08a3.92,3.92,0,0,1,5.83-.2c2.62,2.74,5.86,2.78,9.23,2.53,7.76-.59,15.06,3.85,22.93,1.85-.41-1.22-2.09-3.56,1.41-2.8,7.33,1.59,15.25,1.12,21.32,7.12,2.22,2.2,5.74,3.31,8.86,4.31,3.79,1.23,1.48-2.6,2.79-3.79,6.26,1.21,12.74,1.1,19.28,1.22,0-2.17-2.28-2-2.86-3.61.26-.23.57-.76.89-.76,9.64-.05,19.35.26,28.66,2.54,7.33,1.8,14.53,3.45,22.07,3.23a67.07,67.07,0,0,1,16.83,1.7c.8.18,2,.11,2.33.61,3.14,4.61,7.89,3.61,12.23,3.41,9.22-.43,18.2,1.11,28.29,3.16L1106.74,51c7.89-.19,14.92,1.72,22,2.47,14.45,1.52,27.93,7.26,42.1,10,4.89,1,9.87,1.57,14.67,2.88,1.35.37,6.25-.12,2.92,4.39-.69.92,2.77,1.76,2,4.15-4.6-.35-9.23.09-13.41-3.37-2.81-2.33-7-1.57-10.56-2.49-.68-.18-1.87-.4-1.61,1,.51,2.74-2,3.1-3.36,4.46,4.23,4,10.63,4.28,16.09,8.55-12.77-.49-16,1.42-19.09,10.6-3.72-1.38-7.38-4.43-11.15.08-1,1.13-1.57-.57-2.34-1-2.82-1.53-5,.22-7.24,1.49,2.28,2.07-.26,6.73,3.15,7.5,3.15.71,5.09,1.67,6.84,4.47,1,1.67,3.9,2.21,5.92,3.25.27,2.32-3.1,1.1-2.48,1.58,3.76,3,1,7.4,2.71,10.7a5.67,5.67,0,0,0,.6.79c-3.89,3,.89,6.64-.78,9.76-1.25,2.32-2.48.72-3.51-.2-6.2-5.56-12.35-11.16-18.53-16.74-1.11-1-2.32-1.9-3.4-2.95-2.91-2.84-3.51-8-1.31-11,3-4.08,3.72-14.39,1.24-17.61-.7-.91-1.23-2.22-2.7-1.16-1.14.82-.48,1.6.11,2.5,1.89,2.89-1.37,3.61-2.45,5.09-1.4,1.91-2.63-.17-3.66-.92s-1.67-2.08-2.67-2.94c-2.69-2.34-6-2.07-8.75-.73-1.17.59-1,3.67-1.67,5.54-1.08,3,2,2.36,3,3.58a20.11,20.11,0,0,0,1.79,1.7c-5.25,1.7-9.55,1.21-14.68,0-6.59-1.56-13.92-.58-20.87.06-7.69.7-7.7,1.06-9,8.85-.5,3-1.2,5.81-3.57,8-2.58,2.37-.88,3.51,1.47,3.59,2.17.07,3.2,1.5,4.54,2.64,1.57-1.09-1-2.52.6-3.68.23.3.48.68.78,1,1.75,2,1.37,7,6.85,2.71,2.87-2.27,8.64,1.09,11.27,4.38,10.43,13.07,15,27.52,8.31,44a6.54,6.54,0,0,1-8.54,3.78c-2.88-1.17-5.52.85-6.3,4.81-1.39,7.11-1.39,7.11-4.91,11.11a25.68,25.68,0,0,0,7,5.51c4,2.35,7,5.39,8.14,10.12.51,2.06,2,3.86-.52,5.6-2.73,1.88-5.53,3.57-9,3.33-.61,0-1.74-1.24-1.63-1.65,1.09-4.12-2.24-7.05-2.72-10.25-.6-3.92-2.56-3.71-4.79-4.33-2.43-.68-5-1-4.74-4.54.15-2,.15-3.8-2.6-4.56s-5.2-.83-7.43,1.11c-1.1,1-1.65,2.54-3.64,3-.15-2.45-2.95-4.22-1.21-7.15.61-1-.47-1.86-1.33-2.34-1.14-.63-1.91.29-2.51,1-2.2,2.65-3.88,5.7-7.44,7.1-1.57.62-1.68,2.42.3,3.38,2.3,1.12,5.09,1.36,6.07,4.55.34,1.11,2.13.57,3-.26,3.1-2.87,6.68-.94,10-1.06a1.51,1.51,0,0,1,1.59,1.58c0,.93-.84.66-1.44.84-4.28,1.3-5.59,5.4-7.86,8.58-1.3,1.81.51,2.43,1.54,2.89,5.49,2.48,8,8,11.6,12.14,1.36,1.55,4.22,4.56,1.74,8.12-1.09,1.57.09,2.07,4.53.54-.86,13.44-4.8,25.52-15.15,34.55-2.6,2.27-6.43,3.27-9.84,4.43-2.88,1-5,3.95-8.85,2.91-.72-.2-5.15.68-4.29,4.5.23,1.06-.52,1.9-1.81,1.75s-1.55-1-1.88-2c-1.51-4.62-4.71-5.57-8.47-2.45-1.53,1.27-2.88,2.76-4.3,4.17-2.77,2.75-3.08,5.68-.79,8.92,2.82,4,6.34,7.28,9.78,10.67,5.26,5.19,7.89,11.34,7.48,18.82-.11,2-.35,3.81-2.11,4.72-6.08,3.14-9.61,9.29-15.31,12.95a5.75,5.75,0,0,1-.48-4.94,1.74,1.74,0,0,0-1-2.49c-4.81-1-6.2-5.67-9.43-8.34-1.56-1.3-2.48-3.6-5.35-2.53-2.37.88-1.82-1-1.56-2.26s-.18-2.56-1.48-2.71c-1.72-.21-2.23,1.25-2.14,2.65a16.55,16.55,0,0,1-1.32,6.81c-1.59,4.26-.2,7.44,1.27,11.73,2.59,7.57,9.64,10.07,13.26,15.93.61,1,2.08,1.72,2.17,2.67.73,7,4.16,13.34,5.37,20.48-5.24-6.07-16-7.48-16.34-16.61-.19-6-3.39-9.6-5.5-14.14-.66-1.42-1.45-2.75-4.06-2.67-3.22.1-1.77-3.22-1.6-5,.62-6.19,1.62-12.36-.25-18.5-2-6.49-3.94-13-5.95-19.6-2.86,1.16-4.7,3.07-6.77,4.66-2.35,1.81-6.07.85-6.22-1.68-.27-4.88,1-10.17-4.76-13,1.72-5.13-4.21-4.45-5.79-7.39-1.67-3.13-1.25-7.43-4.87-9.51-2.9,4.65-7.59,4.29-12,3.94-2.4-.19-4.55-.34-5.35,2.1-2.41,7.4-8.6,11.7-13.62,16.92-1.82,1.89-4.2,3.21-5.18,5.86-.22.6-.62,1.53-1.06,1.59-7.11,1.12-4.85,5.92-4.55,10.43.34,5.11-.27,10.28-.49,15.42,0,.48,0,1.13-.33,1.4-1.14,1.05-3.17,1.72-1.9,3.83,1.55,2.55,2.66-.94,3.66-.49a13.87,13.87,0,0,1,7.16,8.56c1,3.07-.66,6.26-3.55,8.11-2.41,1.55-3.83-.36-4.32-2.29a21.25,21.25,0,0,1-.65-7.39c.26-2.47-.58-3.78-2.66-4.66-2.28-1-2.82,1-3.76,2.25s-1.54,3.57-4,2.93a5.12,5.12,0,0,1-4-4c-1.71-7.51-5.14-14.4-8.35-21.27-5.59-12-10.28-24.11-11.13-37.46a21.3,21.3,0,0,0-.94-3.8c-2.49.75-.74,3.37-2,4.21-1.51,1-3.22,3.08-5.18,1.66-2.67-1.95-7.42-3.41-6.15-7.37.78-2.42.28-2.45-1.21-3.06a16.85,16.85,0,0,1-7.45-5.65c-3-4.14-7.15-5.08-11.87-4.41-9.63,1.39-18.82-1.44-28.15-2.88a3.49,3.49,0,0,1-3.18-3.24c-.6-3.66-2.71-3.68-5.38-1.83-3.17,2.19-6.07,1.92-9.64.13-5.92-3-10.51-6.84-13-13-1.42-3.51-4.2-3.66-6.94-2.08-3.13,1.81-3.71,4.68-1.41,7.59,2.67,3.38,5.79,6.32,7,10.74,1,3.62,2.89,3.3,4.35,0a7,7,0,0,1,3.28,6.09c-.07,3.38,1.16,4.17,4.63,3.47,4.13-.83,6.68-3.47,9.47-6,1.29-1.2,2.63-2.36,4.48-4,.39,3,.62,5.44,1.63,7.71.9,2,2.1,3.63,4.27,3.54,4.17-.18,6,3.11,8.61,5.26,1.65,1.36,1.58,3.22.13,4.32-2.89,2.19-2,6.45-5.53,8.74-1.41.89-1.7,5.33-4.48,7.32-4.49,3.22-7.62,8.41-13.9,9-1.85.19-4,.81-4.09,3.53-.07,1.36-1.47,1.71-2.56,2.05-5.87,1.82-10.34,6.67-16.31,8-4.7,1-9,3-13.36,4.66-2.26.86-4.13,0-4.79-2.22-1.73-5.88-3.22-11.83-8-16.24-.19-.18.14-.91.22-1.34,1.87-.54,2.13,2,4.08,1.76-.19-.84-.1-1.92-.58-2.35-5-4.45-6.66-11.43-11.94-15.61a11.21,11.21,0,0,1-4.23-6.56c-2.38-10.92-9.43-19.17-16-27.71-2-2.55-2.12-2.42-6.34-1,4.44,10.54,9.12,21,15.42,30.56.28.42.77.87.74,1.28-.43,5.92,3.19,10.17,5.5,15.12,2.15,4.61,4.35,8.62,8.18,12a154.57,154.57,0,0,1,11.06,11.53c1.5,1.64,3,3.05,2.4,6s4.63,6.1,7.73,4.65c7.14-3.35,15.28-2.65,22.46-5.87,1.91-.85,2.24,1.08,2.27,2.76.11,7.26-2.64,13.69-6.08,19.79-3.67,6.51-7.76,12.79-11.71,19.14a8.69,8.69,0,0,1-2.16,2.69c-8.35,5.77-14.25,13.93-21,21.29a40.87,40.87,0,0,0-9.48,18.95c-1,4.43.76,8.83,2.06,13.09,2.88,9.42,5.09,18.73,3.8,28.87-.71,5.63-3,8.93-7.73,10.89-6.56,2.73-10.47,8.6-15.77,12.81-1.63,1.3-1.3,3.28-.84,5.12.61,2.41,1.37,4.8,1.75,7.24.91,5.77-1,9.94-6.12,12.61-4.11,2.15-6.14,4.78-5.86,9.8a13.21,13.21,0,0,1-4.68,10.53c-6.26,5.72-10.45,13.32-17,18.93-4.42,3.81-10.18,4.92-14.92,5.09a73.31,73.31,0,0,0-16,2.35c-3,.78-4.88.08-5.76-2.84s-4.34-5.41-1.63-9.17c.76-1.06-.67-2.4-1.22-3.6-3.52-7.7-6.93-15.45-11-22.87a4.93,4.93,0,0,1-.64-2.84c1.36-10.9-3.19-20.25-8.13-29.28-5.61-10.26-5.48-20.21-.33-30.4,3.18-6.29,4.91-12.62,1.41-19.49-1.42-2.79.88-5.71-.55-9.19-4-9.75-8.42-19.16-14.86-27.51-2-2.53-2.52-4.89-.9-7.73,2.21-3.9,2.39-8.23,2.54-12.58.18-5.14-2.47-8-7.56-8.09a15.82,15.82,0,0,0-4.47.18c-3,.87-4.39-.21-5.7-3-3.42-7.28-11.09-9.43-18.38-5.49-1.31.71-2.59,1.5-4,2.1-4.7,2.09-8.89,4.61-14.84,2.51-4.83-1.7-10.56-.73-15.32,2.33a4,4,0,0,1-5.29-.27c-3.78-3-7.86-5.6-11.8-8.38-4.5-3.18-8.26-6.52-9.81-12.48a17.41,17.41,0,0,0-9.72-11.44,6.78,6.78,0,0,1-4.09-5.79c-.36-3.25,1.66-6.88-2.06-9.43-.14-.1.26-1.17.56-1.7,3.62-6.35,6.13-12.54,3.91-20.39-2.65-9.38-.33-17.76,6.31-25.77,3.06-3.7,5.38-8.73,8.37-13,1.08-1.52,2-2.72,4.06-3.23,5-1.22,7.52-5.75,11-9,.55-.52.47-1.9.39-2.85-.53-6.13,2.16-10.36,7.29-13.52a21.21,21.21,0,0,0,8-7.83c2.34-4.21-.23-6.63-1.82-9.58a3.12,3.12,0,0,0-2.14-1.07c-2-.22-5.69,2.24-5.75.45-.16-4.44-3.6-8.75-.64-13.41a13.94,13.94,0,0,0,1.55-11.51c-.93-3.45,2.85-6.68,6.42-5.82,6.13,1.49,12.42,1.37,18.66,1.62,2.57.11,4.14-1.19,4.75-4,1.69-7.84-.67-12.73-8.26-16.3-1.41-.66-3.79-.94-3.34-3s2.67-2.11,4.56-2.05c2.3.08,4.64-.28,6.69,1.28,1.06-2.23-.46-3.82-.33-5.56,6.48,2.8,8.1,2.39,12.44-3.6.92-1.26,2.16-1.4,3.37-1.82,4-1.42,7.9-2.85,8.15-8.08.09-1.78,1.63-2.34,3-2.93,2.33-1,4.83-1.13,7.3-1.46,5.56-.76,5.78-1.21,3.49-6.45-.88-2-1.78-4-.83-6.22,1.37-3.19,3.9-5.58,7.19-4.86,1.13.25,2.59,4.13,1.79,6.86a2.18,2.18,0,0,0,.1.78c7.55-1.73,8.06-2.61,3.37-8.69-1.45-1.88-.63-5.75-3.52-5.58-2.16.12-4.36,2.24-6.25,3.81-2.73,2.27-5.29,1.17-7.88.07-2.35-1-3.89-2.56-3.09-5.41.17-.61.42-1.19-.12-1.83-3.08-3.67-2.39-7.33.39-10.71,3.32-4,7.79-6.86,12.93-5.6,3.33.82,4.85-.77,5.28-2.58,1.33-5.64,5-9.13,9.28-12.45,1.16-.89,5.88-3.63-1-4.53a68.76,68.76,0,0,1,30.75-9.57c5.7-.32,11.94-3.09,17.79,0,1,.53,3.56-.32,2,2.53-.65,1.17.82.78,1.51.95,10.63,2.58,21.24,5.21,31.88,7.78,1.27.3,2.2.74,2.35,2.13s-.53,2.37-1.79,3.21c-4.62,3.08-9.56,2-14.45,1.28a21.93,21.93,0,0,0-6.72-.43c2.16,1.35,3.91,2.09,3.27,4.8-.4,1.67,8.13,6.42,10.2,6a1.68,1.68,0,0,0,1.12-.79c.3-.8-.33-1.12-1-1.33-1.23-.4-2.66-.43-3.66-2,2.37-2.06,4.86-1,7.27-.41,1.75.42,4.76,3,3-2-.28-.81,7.28-4.92,8.47-4.56s2.64,1.56,3.66.41c1.47-1.65-1.16-1.91-1.46-3-.55-2-.27-4.4-2.43-6.28a33.24,33.24,0,0,1,5.65.07c1.9.34,4.06,1.3,3.22,3.75-.4,1.2-1.93,2,0,3a3.46,3.46,0,0,0,4.17-.58c4.35-4.21,10.28-4.93,15.56-7.05a2.7,2.7,0,0,1,1.48-.16c6.64,1.45,6.67,1.55,13.89-1,1.78-.63,2.37.05,3,1.3.57,1,1.35,1.56,2.33.52,1.15-1.22.42-2.1-.72-2.75-1.91-1.11-4.51-1.09-5.91-3.64.84-.21,1.61-.67,2-.46,9.19,4.9,20.31,3.13,29.34,8.54.79.47,1.93,1.1,2.38-.42.52-1.7-.76-2.55-2-2.89a9.86,9.86,0,0,1-7.06-5.92c-.9-1.95-.94-2.19.43-3.64,1.08-1.16.91-3.41,1.67-5,1.09-2.29,2.57-4.16,5.16-1.34a5.46,5.46,0,0,0,4.12,1.49c1.54,0,2.26.89,2,2.18-.65,3.06,1.47,4.07,3.5,5.24,3,2.66,4.62,6.41,7.36,9.32,1.68,1.78.91,4.32-.54,7.13,3.17-1.16,3.77-2.79,3.23-4.95-.34-1.35-.63-2.59.69-3.61.35-.27.85-.31,1.09-.73a6.14,6.14,0,0,0-1.08.56c-3.23,1.89-5.18.07-6.25-2.61C812.39,51.09,810.61,49.64,809.26,47.79Z" transform="translate(-3.07 -4.06)"/><path class="cls-1" d="M302.76,575.13c-2.77,1,2.58,4.68-1.3,4.74-2.64,0-2-3.29-2.7-5.17-2.34-6.67-1.56-14-5.17-20.62-1.63-3,.45-8.06.88-12.17.76-7.32,1.06-14.55-1.44-21.7-1.74-5-.9-10.25-1-15.38-.19-12.32-.09-24.64-3-36.75-.7-2.87-1.53-5.37-4.34-6.79-.73-.38-1.33-1-2.05-1.42a59.25,59.25,0,0,1-25.46-28.81C254,423.55,248.38,417,245,409.41c-.93-2.05-3.59-2.45-4.35-4.68-1.63-4.79-4.4-9.65,1.25-13.79,1.53-1.11,1-2.07-.24-3.16-2.72-2.49-2.36-5.21-1.15-8.54,2.45-6.71,6.83-12,11.36-17.23a11.11,11.11,0,0,0,2.69-7.28A40.86,40.86,0,0,0,251.05,336c-.85-1.86-2.31-3.06-4.29-2.53-1.71.45-3.55,1.58-3.16,3.79.26,1.48.4,2.48-1.09,3.33-1.89,1.08-2.75-.4-3.79-1.35-1.86-1.7-3.61-3.38-6.51-2.47-1.41.44-1.86-1.11-2.71-1.8-2.82-2.31-4.75-5.6-8.1-7.34-.73-.38-1.51-1-1.27-1.94,1.22-5.08-4.56-7.11-5-11.53-.15-1.62-1.84-.89-2.85-1.24-7.49-2.61-16-3.12-20.88-11a6.36,6.36,0,0,0-8.39-2.37c-4,1.76-7.8.68-11.46-1.1a159.78,159.78,0,0,1-23.27-13.86c-3.24-2.32-4.54-4.65-2.69-8.78A8.68,8.68,0,0,0,144,265.67c-2.67-2.74-4.92-5.87-7.49-8.71-1.87-2.07-3.32-4.14-2.43-7.12.56-1.88-.71-3.17-1.75-4.43-3.94-4.75-6.53-10-6.36-16.34.08-2.89-1.82-3-3.85-3.43-3.19-.61-1.81,2-2.32,3.22-1.85,4.49,1.3,8,2.83,11.6,3.14,7.34,4,15.48,8.16,22.42,1.1,1.81-.16,3.05-1.88,4-1.77-3-3.07-6.26-5.92-8.4-.49-.37-1.2-1.2-1.07-1.54,2-5.47-2.21-7.5-5.26-10.44-1.32-1.27-4.69-3.39-.49-5.67,1.15-.62.76-1.69.16-2.58-3.25-4.88-2.61-10.58-3.06-16-.37-4.49-2-7.59-6-9.45-3-1.4-4.11-3.56-4.39-7-.56-7-1.93-14-1.42-21.12,0-.63-.14-1.58.19-1.84,6-4.69,5.62-13.45,11.75-18.14s7.17-12.53,11-18.65c1-1.58-.27-2.09-1-2.85-1.34-1.48-2.83-2.83-4.17-4.31-1-1.13-.75-2.53-.36-3.8.62-2,1.88-.55,2.82-.34,2.62.59,2.21-1.14,2.08-2.62-.46-5.29-1.33-10.58,1-16.21-6.09,1.38-7.23-1.33-6.14-6.26a27.5,27.5,0,0,0,.39-7c-.18-4.14-1.58-7.42-6.42-7.87a9.5,9.5,0,0,1-3.88-.84c-9.18-5.49-17.73-.66-26.46,1.42-1.6.38-3.25.53-6.31,1l8.11-6.19c-5.5,1.21-9.54,3.94-14.28,3.79-.68,0-1.59.26-1.18,1,2.4,4.46-1.92,5-3.85,5.37-18.67,4-35.25,14.6-54.39,17a23.65,23.65,0,0,1-7.32.33c16.39-5.5,31.3-11.28,46.5-17.6-3.16-2.28-6.19-1.83-9.08-2-1-1.74,1.1-2.53,1.16-4.18a12.64,12.64,0,0,0-2.57.19c-3.55,1-3.27-.86-2.31-3.08,2.49-5.72,7.71-8.49,13.11-9.82S60.52,77.47,66.32,78c3.12.3,2.47-2.45,3.64-4.3-3.51,0-6.62.14-9.71-.08-1-.08-3.15.51-2.77-1.65.23-1.26,0-3.09,2-3.61,4.66-1.19,9.26-3.13,14-3.44,2.13-.14,4.57,2,7.18.61-1.5-7.72-1.52-7.82,6.08-9.26,11.43-2.18,22-7.45,33.64-9a18.44,18.44,0,0,1,8.07.41A96.12,96.12,0,0,0,155.89,52c4.88,0,9.66.12,13.77,3.19a4,4,0,0,0,3.33.61c10.57-2.15,21.64-1.19,31.93-5.07.91-.34,2.24-1.31,2.61-.23,1.26,3.65,3.67,1,5.47,1.49,2.76.69,5.5.74,8.17,1.2,6,1,12.1,1.71,17.75,4.14,0,2.26-2.52,1.49-3,3,.13.19.28.6.44.6,5.48.05,11,.6,16.41-.13,3-.41,5.29-3.61,8.78-4.11,1.8-.26,3.14-.4,4.53.87,5.79,5.28,12.7,2.11,19.07,1.93,1,0,3-3.87,5.39-5.65,3.33-2.46,7.71,3.38,9.87-2,1.59-4,5.87-4.59,8.76-6.94,1.54-1.26,3.58-2.2,4.57-3.79,3.15-5,7.78-5.66,13-5.18,1.46.13,2.94,0,5.75,0-4.49,2.78-7.64,5.21-12,5.53-2.62.19-6.9,1.24-6,3.58,1.16,3-2.93,8.45,3.87,9.4,2.07.29,2.41,3,.22,4.62-1.17.86-2.33,1.81-1.46,3.21,1.08,1.73,2.62.13,3.39-.41,3.53-2.41,7.69-4,10.4-7.51,1.34-1.74,1.69-3.22-1.44-3.37-1.82-.1-4.15.45-4.83-2.36s1.34-3.8,3-5.2c4.54-3.9,9.64-6.34,15.86-6.44-.17,2.45-4,2.21-3.15,5.48,2.58-1,4.45-3,7.08-3.92,6.54-2.18,13,.37,19.51-.46A2.61,2.61,0,0,1,369,39.2c3.32,5.67,9.51,6.77,14.74,9.4,3.34,1.68,4.63,4,1.66,7-2.31,2.32-.17,4,1.06,3.89,5.08-.63,7.19,3.26,10.32,5.66-2.24,3.63-6.56,3.77-9.44,6.3-2,1.8-3.8-.42-5.21-2.19-1.17-1.46-1.79-4.62-4.76-2.2s-.66,4,.83,5.8c1,1.23,3.09,2.79,2.29,4-1.23,1.83-3.08,3.23-4.1,5.4-.34.72-1.7-.38-2.57-.77-2.19-1-3.65-3.34-6.54-3.64.45,3.07,4.37,4.14,3.37,7.85-4.08-1.26-8.08-2.59-12.15-3.72-1.91-.52-2.46-2.07-3.29-3.47-3.47-5.79-4.46-6.13-10.56-3.58a9.89,9.89,0,0,1-2.29.92c-1.35.18-2.12-1-2.74-1.86-.84-1.21.61-1.55,1.22-2.14,1.73-1.68,3.69-1.57,6-1.29,3.19.39,7.19,2.55,8.71-3.16.36-1.36,3.66-1.9,5.55-2.92,1.39-.75,3.35-1.1,3-3.4-.15-.93.16-2.32-1.11-2.47a5.54,5.54,0,0,0-5,1.55c-1.45,1.57-2.74,3.51-5.4,2.66-.88-.29-2.31-.12-2.25-1.37a3.68,3.68,0,0,1,1.59-2.36,10.49,10.49,0,0,1,2.85-.81c1.77-.52,5.25.4,4.88-1.87s-3-4.57-6.31-4.41c-2.82.13-5.79-.36-8.42.38-1.4.39-7.44-3.47-4.21,3.24-3.83,3.24-4.55,10-11,10.12-3.46,0-6.48,5.43-10.43-.06.48,4.52,3.84,5.38,6,7.26,1.4,1.2,3.61,2.44,2.38,4.29s-3.47,1.28-5.25-.06S318.78,75.24,317,77c-3,3.06-5.73,2.82-8.27-.54,3.48-1.71,5.8-5,8.52-7.88-4.39,2.46-8.48,5.58-13.28,7.06-10.19,3.15-18.53,10-28.31,13.86-3.21,1.28-5,4.31-7.47,6.53-1.06,1-1.54,1.89.56,2.12.71.08,1.48.56,1.25,1.23-2.15,6.17,2.16,6.28,6.22,7,3.8.67,6,4.17,9.4,5.92,3.74,2,7.47,2.13,11.26,2.93.14,2.31-1.95,3.54-2.22,5.55-.16,1.17-1.58,2.35.7,3.09,1.58.51,1,1.68-.13,1.86-1.31.21-3.1-.42-1.59,1.86,1,1.55.67,5,2.66,4.54,2.29-.55,6.31-2,6.26-4.29-.22-10.75,8.37-12.65,15.25-16.47,4.81-2.68,5.58-5.32,3.15-10.41a1.36,1.36,0,0,1,.58-2c4.87-3.21,6.57-8.55,8.94-13.4,1.21-2.47,2.78-3,5.51-2.85,3.17.18,6.39,1.45,9.72-.34,1.4-.75,2.84,1.48,3.82,2.68,1.83,2.23,3.83,4,7.48,4.56-2,2-3.58,3.68-3.53,6.16a4.35,4.35,0,0,0,6,4.07,36.9,36.9,0,0,0,10-6.48c1.89-1.72,3.4-2.31,3.53,1.27.17,4.82,2.69,9.32.73,14.59-.71,1.93,3,4.65,5.63,6.15,5.69,3.31,6.9,9,3.94,14.62-1.42,2.67-3.68,5.91-1.1,9.39.36.48.38,1.53,1.09,1.41,7.88-1.25,3.13,5.57,5,8.19,1,1.42-2.07,2.48-3.35,3.62-1.46,1.31-1.68-.85-2.41-1.08-2.66-.84-5.11-2.44-8.07-2.34s-6,0-10.45,0c5.3-6.7,10.73-11.64,15.73-16.82-.47-1.14-1.17-.82-1.66-.48-8,5.52-17,6.81-26.23,5.77s-15.71,4.2-22.44,9.2c3.5-1.4,7-2.75,10.5-4.2a6.46,6.46,0,0,1,4.34-.56c2.34.62,3.58,1.59,1.81,4.06-.77,1.07-1.12,2.5-2,3.39-2.7,2.59-2.08,5.23.29,7.16,2.59,2.1,5.81,2,8.68.13a18.69,18.69,0,0,0,2.42-2.52c.83-.82,1.81-1.78,3-1.15.45.24.33,1.48.53,2.25.34,1.3-.08,1.83-1.32,2.64-5.82,3.78-12.7,5-18.79,8.14-1.61.82-4.38,3.18-5.68-.5-1-2.75,2.65-2.45,4-5.46-8.42,4.07-17.75,3.68-23.13,11.74-.58.87-2,1.7-1.15,3,2.12,3.08-.56,3.44-2.28,3.81-6.86,1.49-13.79,2.71-17.65,9.64-5.05,0-4.8,6-8.52,7.48a1.62,1.62,0,0,0-1,2c1.21,7.56-4.75,10.42-9.49,13.66-6.16,4.22-12.59,7.9-17.62,13.71-3.46,4-4.15,7.9-3,12.79s1.38,9.83-.73,14.67c-1.1,2.51-2.19,3.24-4.12.82-2.95-3.67-4.55-7.64-3.26-12.45s-2-8.47-6.73-7.4c-1.18.27-2.44.77-3.19-.39-1.88-2.87-4.37-1.71-7-1.82-4.51-.2-8.23.08-11.44,3.81-1.1,1.28-3.48.94-5.54-.14-3.86-2-7.67-1.93-11.68.62-8.58,5.48-17.4,10.13-17.71,22.52-.16,6.14-5.24,11.76-2.13,18.63a34.14,34.14,0,0,0,5.92,9.07,6.08,6.08,0,0,0,7.28,1.55,18.21,18.21,0,0,1,4.75-1.39c4.76-.56,7.87-2.6,8.69-7.71.72-4.43,4.59-4.76,8-5.05,2.1-.17,4.27.39,6.76.67-3.33,8.58-6.59,17-10,25.83,4.83,0,9.13,0,13.43,0,6.32-.06,8.62,2.71,7.5,8.7-.73,3.9-2.24,7.59-2.34,11.69-.11,4.7,2.18,7.82,5.3,10.67,2,1.8,3.9,2.23,6.72,1,3.52-1.55,7.42-2.69,11,.71s8.28,2.26,9.41-2.89c1-4.59,3.31-6.8,7.62-7.74,3.15-.68,5.69-2.62,8.23-4.55.83-.64,2-1.45,3-.14s-.39,1.55-.9,2.27c-1.91,2.66-2.31,8.47-.66,10.13.76-2.08-.35-4.71,2.16-6.19,2-1.19,3.35-3.18,4.64-5.76,3,5.22,7.62,6.6,13,6.43a2.17,2.17,0,0,1,1,.11c5.1,2.57,10.11,1.44,15.17-.18,1.07-.34,3.5-1.08,1.62,1.76-.11.17.37,1.07.71,1.16,5.33,1.45,6.7,8,12.09,9.36a4,4,0,0,1,2.58,2.2c3.42,6.9,9.55,9.13,16.66,9.43,8.56.37,14.31,5.1,16.21,13.59.46,2.06,2.36,3.93,2.69,5.34,1.13,4.79,4.1,8,7.05,11.42.4.47.17,1.46.25,2.36,5.05-3.31,14.91.19,16.41,5.51.22.76-.07,1.65,1.26,1.51,5.52-.6,10.94,2.93,16.58.31,1.53-.71,2.71,1,3.83,1.88,4.12,3.36,7.71,8,12.4,9.85s5.91,5,7.21,8.93a5.85,5.85,0,0,1-.29,4.75c-3.89,7.89-7.32,16-13,22.88-1.91,2.29-2.2,4.75-2.27,7.78-.31,11.92-.75,23.93-6.76,34.78a11.57,11.57,0,0,1-7.67,6c-6.9,1.55-12.15,6-17.79,9.77-2.22,1.49-3.3,3.39-2.6,6.35a20.15,20.15,0,0,1-2.88,15.76c-.35.57-.52,1.59-1,1.7-6.37,1.59-5.09,7.92-7.46,12a39.56,39.56,0,0,0-1.5,3.69c-3.35,7.29-9,8.87-15.71,4.44-.95-.63-2-2.54-3.19-.89-1.07,1.47,1.69.88,1.71,2.09,0,3.89,5,4.94,5.26,8.36.69,8.29-1.58,11.26-10.69,11.86-4.32.28-7.07.18-5.67,6,.85,3.55-2.74,4.3-5.73,4.41-1.23,0-2.8-1.39-3.62.08-.94,1.67.67,3.06,1.46,4.47,1.13,2,3.27,1.93,5.61,2.27-2.21,2.64-4.12,4.92-3.51,8.29.64,3.56-4.54,5.32-3.06,9.27,1.25,3.34,4.17,5,6.84,6.92a.9.9,0,0,1,.1.88c-3.13,3-2.1,7.67-3.88,10.63-2.15,3.56-.43,5.33,1,7.31,3.79,5.12,8.15,9.64,14.89,10.93.93.18,2.65,0,2.82,1.45.16,1.32-1.21,1.81-2.16,2.46-2.44,1.68-4.9,1.77-7.93,1.45-19.32-2-29-16-38.22-30.47-.49-.76-1.5-1.63-.75-2.66,2.42-3.36,1.3-5-2.46-5.75-1.76-.33-1-1.83-1-2.86-.08-2.27,2.25-4.71-.53-6.83a3.46,3.46,0,0,1,.76-1.64C305.81,582.55,305.94,579.93,302.76,575.13Z" transform="translate(-3.07 -4.06)"/><path class="cls-1" d="M1130.23,539.44c-2.25-.28-2.93,2.34-5.26,2.06.92-3.46,5.54-4.26,5.91-8.4-3.37,2.18-6.68,3.69-8.7,6.86a1.7,1.7,0,0,1-2.52.73c-.71-.44-1.43-1-1.22-2,1.72-7.77-5.17-9.12-9.48-11.38a15.3,15.3,0,0,0-12.15-.51c-6.2,2.29-13.57,1.64-18.88,5.78-5.46,4.24-11.18,4.74-17.52,4.47-3.49-.15-6,2.57-9,4-3.7,1.87-7.25,2.41-10.86.24-2.31-1.38-4.34-2.94-.75-5.43,2.1-1.46,3.13-3.91,3.67-6.34a56.25,56.25,0,0,0-.71-27.67c-.25-.91-1.46-2.15-.49-2.65,3.34-1.71,1.46-5,2.39-6.84,1.94-3.8.59-9.82,3.53-11.2,4.74-2.22,8.43-6.13,13.87-7.4,7.47-1.75,15.34-3.34,20.9-9.6a11.76,11.76,0,0,0,3-5c.63-2.51.63-6.71,5.3-3.64,1.09-2.72,4.58-2.92,5.81-5.6.7-1.53,1.34-3.57,4-2.68,1.77.59,1.82-.9,1.9-2.06.15-2.28,1.31-3.85,3.51-4.26,2-.36,3.43.84,4.61,2.38s1.31,3.81,4.31,2.85c2.39-.76,4-1,4.85-4.24,1.06-4.22,3.37-8.37,9-8.45,2.4,0,3-1.5,1.83-3.74a1.79,1.79,0,0,1,.55-2.59c.89-.41,1.48.47,2.12,1,4.06,3.27,8.06,6.72,13.74,3.23,1.24-.76,2.14-.11,2.84,1.07s.85,2.35-.29,3.09c-2.22,1.45-2.8,4.11-4.47,5.79-2.84,2.85-2,5,.73,6.74,4.2,2.75,6.17,7.8,10.92,10,3,1.4,4.84,1.36,6.94-1.79,3.75-5.64,4.92-11.88,5.75-18.33.5-3.88,1.11-7.75,3.82-11.45,2.74,4.75,3,9.55,3.85,14.19.29,1.57,0,3.52,2.76,2.74,2.17-.61,2.15,1.38,2.7,2.71,1.66,3.95.38,8.31,1.83,12.28,1,2.61,1.36,5.39,3.54,7.55a25.64,25.64,0,0,1,6.41,11.14c1.35,4.32,4.29,8.85,7.14,12.81s3.48,7.74,2,12.38c-2.13,6.44-3.31,13.17-7.07,19a58.75,58.75,0,0,1-9.49,11.33c-6,5.64-10.88,12.53-16.24,18.89-1.06,1.26-1.93,3.06-3.79,2.93-5.38-.34-9,2.91-12.72,5.91-.88.7-2.22,2.57-3.18.66-1.76-3.49-3.06-3.36-6.61-1.6-6.9,3.42-14.86-3.39-13.8-11.05.2-1.43.42-3.3-1-4s-2.16,1.12-3.13,1.92c-.62.53-1,1.31-1.61,1.9-1.3,1.32-2.18.12-2.8-.73-1.07-1.45.43-1.37,1.23-1.79C1126.49,544.27,1130.44,544,1130.23,539.44Z" transform="translate(-3.07 -4.06)"/><path class="cls-1" d="M434.45,46.78c-2.09-1.77-4.24-2-6.47-2.18,0-.58-.08-1.16.15-1.5,6.11-8.69,2-11.62-6.72-14-5.57-1.49-11.54-1.29-17.11-3.1a14.35,14.35,0,0,1-3.67-1.42c-1-.67-2.42-1.36-1.85-3.12.44-1.36,1.5-1.58,2.71-1.74,6.26-.83,12.51-1.72,18.77-2.54,3.54-.47,4.47-1.68.49-4.43,11.6-2.67,22.65-4.44,33.61-4.38,14.81.08,29.08-3.86,43.81-4.05,13.14-.16,26.27-1.38,39.05,2.74,2.18.7,5,0,6.31,3.07.5,1.2,2.09.46,3.22.33,4.74-.51,9.47-1,14.3-1.16-6,2.75-11.53,6.52-18.16,7.61-4,.65-5.87,2.12-2.93,6,1.63,2.17,1.28,3.44-1.51,4.12-2.27.56-3,3.23-2.19,4.39,2.65,4.07-1,4.34-2.92,5.26-4.57,2.24-8.41,4.63-7.52,10.74.3,2-.45,3.44-3.32,3.75-10.78,1.19-21.45,4.15-30.66,9.39a82.93,82.93,0,0,1-24.93,9.22c-3.43.71-5.71,2.48-7.91,5.33-4.55,5.89-10.37,10.75-14.49,17a3.85,3.85,0,0,1-2.12,1.12c-6.64,1.83-16.62-3.89-18.33-10.56-1.75-6.87-1.65-13.94-.86-20.85A9.41,9.41,0,0,1,430,54.16c1.51-.46,3.35-.24,3.29-2.56-2.07-1.25-5.52,2.72-6.19-1s3.72-1.94,5.53-3.2A7.94,7.94,0,0,1,434.45,46.78Z" transform="translate(-3.07 -4.06)"/><path class="cls-2" d="M1207.84,425.05c-6.67-1.05-12.34-2.64-16.16-8.76s-6.93-6.13-11.33-.68c-3.43,4.26-7,3.74-11,1.84s-7.47-4.38-12.52-3.51c3.36-3.08,3.68-6.39,2.18-10.25-1.65-4.23-5.32-5.22-9-6.13s-6.81-3.35-10.88-3.16c-2.51.12-3.33-2.69-3.28-4.3.11-3.54-1.59-5.12-4.52-6-2.13-.65-3.13-2.24-3.94-4.22,3.94-2.58,8.24-1.84,12.46-1.81,1.45,0,2.53.63,1.92,2-2,4.72,2.78,6.24,4.25,9.27.76,1.56,2.77,1.73,4.18,0,1.17-1.4,2.22-2.91,3.48-4.23,2.14-2.25,4.35-3.41,7.88-2.4,8.57,2.46,16.33,6.5,24,10.85,1.92,1.09,3.89,2.27,4.19,4.63s1.68,3.12,3.66,3.25c2.5.17,3.78,1.79,5,3.69.59,1,1,2.14-.32,2.4-5,1-1.9,3.52-.77,5,2.12,2.71,3.91,5.8,7.19,7.49C1206.28,421,1207.28,422.7,1207.84,425.05Z" transform="translate(-3.07 -4.06)"/><path class="cls-2" d="M1069.69,340.73c1.82,1.63,3.11,2.67,4.26,3.84,6.27,6.34,6.68,5.28,1.66,12.51-2.8,4-2.39,5.33,2.47,14.27-4,.74-5.73,3.13-5.28,7.16a3.41,3.41,0,0,1-1,2.7c-3.6,2.58-5.06,5.62-4.08,10.21.55,2.63-2.3,3.39-4.44,3.57a14.12,14.12,0,0,1-7.28-1.31,14.63,14.63,0,0,0-9.59-1.44c-3.53.7-5.71-1.23-5.2-5.18.31-2.39.16-4.52-1.65-6.46-3.41-3.66-2.54-7.78-1.15-12.05.54-1.68,1.27-1.09,2.12-.81,3.34,1.14,5.31,0,6.25-3.4a3.56,3.56,0,0,1,1.81-2.24c5.19-1.7,7.55-6.86,11.85-9.5A20.67,20.67,0,0,0,1069.69,340.73Z" transform="translate(-3.07 -4.06)"/><path class="cls-3" d="M353.7,22.65c-2.88-.67-5.52.72-8.13-1.57-2.42-2.14-1.52-4.48-1.42-6.86,0-.26.84-.78,1-.69,5.44,3.33,7.83-5.18,13.81-3.16,4.47,1.5,10.19-.22,15.25-1.09C393.32,6,412.6,6.33,431.87,6.34c.93,0,1.92-.24,3,.87-5.09,1.27-9.72,3-14.49,3.52-15.06,1.77-28.84,7.13-42.29,13.78-3.83,1.9-8.26,1.82-12.64,1.79-6.19,0-12.9-2-18.31,3.23a42.81,42.81,0,0,1,19.71,1.12,2.75,2.75,0,0,1-3.12,2.73c-9-.74-18.1,3.31-27.06-.38-.72-.29-1.61,0-2.16-.88-2-3.15-2-3.12-4.23-.41-1,1.24-2,3-4,2.28-3.87-1.49-8-.46-11.83-1.39-1.48-.35-4,.16-4.19-1.82s1.39-3.72,2.93-5c2.09-1.7,7.13.07,7.34,2.76.18,2.28,1.16,2.36,2.81,2.31,1.48-.05,3.13.28,3.54-1.8.34-1.69-.59-4.24,1.79-4.63,2-.33,4.71-.17,6.3.94C342.38,30.52,347.64,24.18,353.7,22.65Z" transform="translate(-3.07 -4.06)"/><path class="cls-2" d="M789.13,443.72c-.24,2.84.64,6.18-3.33,7.32,1,5.61-2.74,10.07-3.85,15.2-1.89,8.72-4.52,17.3-7.17,25.84-1.16,3.7-7.49,6.91-10.58,6-4.31-1.29-6.54-5.4-6.47-10.42.06-4.62.76-8.62,3.69-12.53s1.52-8.61.51-13c-1.09-4.76,1.06-9.67,5.62-11,6.93-2,10.38-7.32,14.06-12.7,1.24-1.82,2.67-5.15,4.79-4.25s2.86,4.27,2.84,7.05C789.23,442.06,789.17,442.89,789.13,443.72Z" transform="translate(-3.07 -4.06)"/><path class="cls-4" d="M242.73,41.65c-6.8,3.17-12.7,10.1-21.08,2.11,4-1.51,7-2.67,10-3.74,1.9-.68,3.77-1.19,4.32-3.58.38-1.68,1.94-2.3,3.46-2.35,4.82-.16,9.64-.15,14.46-.23a2.68,2.68,0,0,1,2.84,1.62c1.36,5.11,6,4.5,9.54,5.36,2.08.5,4.28.18,5.65,2.36.71,1.14,1.54,1,2.31-.08.49-.67,1.1-1.25,1.6-1.91,1.64-2.17,4.89-3.76,6.32-2.79,2,1.4,1.3,4.84.07,7.16-.68,1.29-1.16,2.05-.33,3.48.71,1.22,3.17,2.59,1.17,4.09s-3.91,4.25-6.92,3.08c-7.48-2.89-14.95-1-22.43-.4-.66.05-1.52,0-1.93.38-5.38,4.93-9.35.45-13.74-1.87-1.88-1-.55-1.84-.23-2.74C239,48.31,241.86,45.87,242.73,41.65Z" transform="translate(-3.07 -4.06)"/><path class="cls-3" d="M1026.63,388.45c-1.81,3.24-3.54,6.3-2.87,10.53.52,3.35-4,5.7-7.06,3.69-6.66-4.37-13.1-9.05-14.59-17.88-1.18-7-4.33-14.34-9.19-18.29-5.12-4.16-6.77-11.72-13.88-13.46-1.36-.33-1.37-1.29-.78-2.28s1.25-1.67,2.4-1c6.08,3.77,14,4.66,18,11.71,2.78,4.89,8.83,5.87,12.34,9.85,1.56,1.77,6.14,2.44,3,6.61-.55.74,1,1.57,1.74,2.12,2.32,1.65,4.7,3.27,5.61,6.14S1024.88,387.3,1026.63,388.45Z" transform="translate(-3.07 -4.06)"/><path class="cls-5" d="M1091.4,342.27c1.28-4,1.23-8.87,7.94-8.11,2.11.23,5.86-1.25,3.75-5.5-.8-1.61-1-3.51-1.63-5.2-.45-1.13-1.35-2-2.73-1s-2,1.69-.59,3.12,3.26,3,.53,4.72c-2.46,1.56-4.37,1.58-5.75-1.88-.81-2-3.58-3.15-3.63-5.9,0-1-.51-2.1.32-2.85,1-.92,1.82.23,2.58.68,2.1,1.23,4.12,2.17,6.49-.23-4.39-2.83-5.87-9.11-12.29-9.3-1.25,1.32,0,3.19-1.06,5-2-2.08-4.93-3.34-3.55-7.09a1.5,1.5,0,0,0-.33-1.35c-9-6,.32-13.25-1.24-19.77-.3-1.28,1.42-1.67,2.56-1.86a2.5,2.5,0,0,1,3.08,1.88c.64,3.45,2.54,6.56.71,10.54-2.43,5.32-.57,7.58,5.15,9.25,2.62.76,7,1,4.76,6-.53,1.17,0,1.28,1,1.45,5,.81,6.88,3.93,6.3,8.81-.07.62.06,1.72.41,1.88,5.83,2.57,3.62,8.07,4.39,12.36.31,1.77,3.1,5.16-2.19,5.6-1.51.12.24,3.6-.79,5.75a8.25,8.25,0,0,1-5.75-5.2C1097.68,338.15,1095.88,337.8,1091.4,342.27Z" transform="translate(-3.07 -4.06)"/><path class="cls-6" d="M1208,594c8.38-5,16.52-10.18,24.88-14.92,4.34-2.47,8.77-4.68,12.45-8.14,1.47-1.4,7.35-1.71,9.19-.55,2,1.28,2.61-.75,3.62-1.51,1.26-.95,2.87-2.15,1.4-4.08a18.86,18.86,0,0,0-2.7-2.31c11.76-3.59,8.15-14,10.37-22,3.55.59,4.3,2.72,3.49,6a7,7,0,0,0,.66,4.74c2,4.72,4,6,8.4,2.47,0,2.38-1,4.17-2.16,4.75-6.48,3.36-10.55,9.81-17,13.07-.89.44-1.91,1.12-2.77,1-6.39-.93-10.81,3.56-14.47,7-6.44,5.95-15,8.14-21.31,14.15C1218.25,597.19,1213.31,599.53,1208,594Z" transform="translate(-3.07 -4.06)"/><path class="cls-3" d="M565.18,137.91c2.05-2,3.24-4.89,6.38-5.55-1.28-2.06-3.71-.5-5-2,0-1.62,1.45-1.55,2.38-2.05.69-.37,1.66-.24,1.86-1.33.66-3.56.67-3.56,3.86-4.49-.77-2.76-.82-5.38-5.19-5.7s-6.49-9.9-3-13.25c2-1.87,3.55-5.08,7.41-4,2.07.61,2.22-2.88,4.89-2.45a13.07,13.07,0,0,1-4.09,5.6c.64,1.6,2,1.11,3,1.13,3.26.08,2.91,1.8,1.25,3.35-2.37,2.2-1.79,3.29.42,5.38,2.46,2.33,4,5.65,6,8.5,1.25,1.78,1.28,5,4.9,4.14.67-.16,1.4.78,1.54,1.7.33,2.11-4.68,8.82-6.77,8.38C578.1,133.84,571.9,136.71,565.18,137.91Z" transform="translate(-3.07 -4.06)"/><path class="cls-5" d="M1111.37,414.63c-6.54,2.27-10.81,6.78-16.09,11.18.19-5.62,5.5-6.07,8.32-10.23-9.91,4.22-19.61,3.44-28.33,2-6.57-1.11-12.48,2.68-19-.22-5.83-2.61-12.63-2.54-19-3.4-2.79-.38-5.62-1.06-7.49-3.48-2.07-2.69-5.37-2.2-8.13-3.17,2.62-4.52,6.57-5.14,10.29-1.73s6.44,3.51,10.37-.16a2,2,0,0,1,3.09,0c2,2,4.47,1.65,7,1.66,1.49,0,6.16-1.32,2.05,3-.78.82-.12,1.65.83,1.72,4.35.3,8.14,3.11,13.07,1.55,4.59-1.45,9.28,2,14.15,1.89.48,0,1.08.45,1.44.28,6.66-3,13.88.58,20.54-1.78C1106.68,412.92,1108.62,413,1111.37,414.63Z" transform="translate(-3.07 -4.06)"/><path class="cls-5" d="M1104.7,366.35c.35,6.74-3.94,9.94-9.33,8.17-2-.68-3.91-1.83-5.95-2.49a3.62,3.62,0,0,0-4.72,1.74c-1.21,2.36-.48,4.5,1.11,6.44s3,.63,4.22-.41,2.73-1,4.25-.84c2.21.23,2.31,1.69.86,2.48-6.69,3.67-1.57,7.64-.39,11.39.54,1.72,1.58,3.25,1.49,5.19-.07,1.46-.36,2.69-1.92,3.1s-3.83-.55-3.87-1.38c-.12-2.59-2.46-4.63-2-6.92.64-3.2-1.72-2.77-2.93-4.42a8,8,0,0,0,0,6.13c.72,2.22.07,4.29-.46,6.37-.48,1.85-2.21,2.05-3.59,2.05-2.23,0-1.38-2-1.25-3a16,16,0,0,0-1.24-9.24c-.92-1.89-.39-3.5.25-5.2,1.41-3.71,2.83-7.34,3.1-11.45.26-3.87,2.61-5.71,7-4.75C1094.38,370.41,1099.78,372.28,1104.7,366.35Z" transform="translate(-3.07 -4.06)"/><path class="cls-7" d="M273.45,26.6c1.81.52,3.53.56,4.6,1.42,4.41,3.52,8.25,2.15,12.16-.82,1.1-.84,3.7-2.13,3.72-1,0,2.3,2.78,2.45,2.48,4-.41,2-2.57,2.83-4.33,2.69a36.84,36.84,0,0,0-17.51,2.94,4,4,0,0,1-3.4,0C265,32.65,259,29,251.78,27.7c7-1.73,14-3.44,21.06-5.19.83-.2,1.65-.51,2.07.56C275.55,24.67,273.8,25.33,273.45,26.6Z" transform="translate(-3.07 -4.06)"/><path class="cls-8" d="M510.73,70c3.62-2.94,6.21-4,10.55-1.71,4.74,2.53,10.41-.3,15.65-.74,3.29-.28,6.24.09,6.92,3s-2.37,4.28-5.09,5c-3.2.81-6.32,1.92-9.57,2.67-3.55.82-6.68.88-8.65-2.36C518.33,72.26,514.54,71.42,510.73,70Z" transform="translate(-3.07 -4.06)"/><path class="cls-5" d="M274.25,278.55c-5.29,3.66-10.79,2.53-15.93,3-1.84.16-2.05-2.1-2.09-3.48-.11-3.86-2.36-5.59-5.71-6.52-1.91-.53-4.05-.76-5.66-1.8-4.13-2.66-7-1.73-9.5,2.27-.51.82-1.55,2.76-3,1.13-.84-1-.64-2.44.63-3.52,2.56-2.18,5-4.36,8.8-3.57,4.38.9,8.93.66,13.3,1.94,3.87,1.13,7.66,2.19,10.17,5.72C267.25,276.44,270.65,276.77,274.25,278.55Z" transform="translate(-3.07 -4.06)"/><path class="cls-8" d="M559.94,114.05c4.95,0,6,1.61,4.24,6.4a1.28,1.28,0,0,0-.13.48c1.4,8.15-5.41,8.24-10.17,10.32-2.22,1-4.55.58-5.72-1.35s1.09-2.77,2.39-3.65,1.41-1.08.29-2.51c-2.28-2.89-1.3-4.85,2.2-4.76,1.88,0,2-1,2.64-2.18C557.11,114.31,557.73,114,559.94,114.05Z" transform="translate(-3.07 -4.06)"/><path class="cls-9" d="M278.67,280.09c6.23,2.6,14.64-1.67,18.12,7.41-1.58,1.05-3.24.55-4.8.62-3,.13-6,0-8,2.76-.63.85-2.08,1.49-2.59.88-2.24-2.7-5.11-1.36-7.74-1.63-.88-.09-2.28.35-2.42-1a1.92,1.92,0,0,1,2.29-2C279,287.9,279.09,284.3,278.67,280.09Z" transform="translate(-3.07 -4.06)"/><path class="cls-9" d="M1141.1,567.09c3.89,4.36,8.14,2.71,12.84,1.79-2.5,5.74-4.94,10.68-10.76,13a6,6,0,0,1-5.66-.26c-1.47-1,.22-2.72.53-4.06C1138.83,574.22,1139.94,571,1141.1,567.09Z" transform="translate(-3.07 -4.06)"/><path class="cls-10" d="M311.91,35.09c-1.7,6.35-6.84,10.78-12.11,10.74-3.2,0-6.31-4.18-6.1-5.15.77-3.69,3.09,0,4.81,0C300.42,32.5,307.05,37.65,311.91,35.09Z" transform="translate(-3.07 -4.06)"/><path class="cls-11" d="M1076.68,270.44c-5.11-4.64-4.38-8-1.69-13.61.53-1.08,1.29-2.11,2.63-1.76,1.07.27,1.14,1.43,1.39,2.41C1080.25,262.45,1079.77,265.27,1076.68,270.44Z" transform="translate(-3.07 -4.06)"/><path class="cls-12" d="M328.87,20.15c-3.25,2.59-11.82,2.38-14.15-.16a1.19,1.19,0,0,1-.17-1.69A2.73,2.73,0,0,1,317,17,29.8,29.8,0,0,1,328.87,20.15Z" transform="translate(-3.07 -4.06)"/><path class="cls-13" d="M1036,280.32c1.12.12,2.38.62,1.93,2.38-.78,3-2,5.58-5.79,5.6-2.34,0-2.94-1.77-2.84-3.25C1029.6,281.28,1032.82,280.9,1036,280.32Z" transform="translate(-3.07 -4.06)"/><path class="cls-14" d="M287.4,23.76A22.4,22.4,0,0,1,296,17.61a2.16,2.16,0,0,1,2.65.62c.88,1.15-.28,1.78-1,2.34C294.78,22.86,291.75,24.83,287.4,23.76Z" transform="translate(-3.07 -4.06)"/><path class="cls-15" d="M338.32,19.82c0,1.87.23,3.73-2.26,3.67a4.69,4.69,0,0,1-4.54-4.44c-.23-2.37,2.72-2.56,4.36-2.82C338.7,15.77,338,18.41,338.32,19.82Z" transform="translate(-3.07 -4.06)"/><path class="cls-16" d="M629.88,195.49c3,2.38,6.59,3.26,9.89,4.63a3.75,3.75,0,0,0,1.45,0c-.2-5.24,6.6-5.54,7.26-10.26.1-.79.56-1.41,0-2.25-.71-1.13-2.47-2.15-.68-3.79,1.63-1.48,3.09-.4,4.59.24l1.27.58a2.3,2.3,0,0,0-1.7-3.5c-4.57-1-7.92-4.27-12-6.25-4.85-2.38-7.54-7.39-9.74-12.23-1.06-2.33,1-3.91,3.3-5.27,4,8.43,11.06,13.54,19.12,17.47,3.7,1.81,6.46,4,5.29,8.86-.52,2.12.88,4,2.15,5.38,2.91,3.26,7.32,5.06,8.44,10.14.28,1.3,2.53,2,5-.69,4.23-4.49,4.57-7-.44-10.41a3.36,3.36,0,0,1-.54-4.38c2.06,1.24,4,3.05,5.93-.62,1.25-2.34,4.71-.91,5.8,2.34,1.35,4.07,2.07,8.33,4.37,12.1.67,1.1.6,2.53,2.42,2.46,2.85-.11,5,1.63,7.29,2.92,1,.57,2.48,2,3.38.17,1.74-3.58,4.37-2.26,6.18-.85,3,2.37,5.46,2.07,8.58.2,5.4-3.22,8.54-1.25,8,5.07s-3.67,11.68-6.7,17a5,5,0,0,1-5.65,2.16c-4.93-1.1-9.86-1.18-14.66.82-2.56,1.07-4.89-.2-7.18-1.07-6.35-2.43-12.74-4.77-18.94-7.54-3.82-1.7-6.33.53-8.94,2.24-2.29,1.5-4.1,3.66-2.15,6.7.73,1.14.29,1.79-.63,2.46-1.22.88-2.38,1.16-3.58,0-1.94-1.84-4.37-2.21-6.91-2.43a10.66,10.66,0,0,1-7.24-3.71c-2.8-3-6.27-5.61-10.86-5.13-4.22.43-5.53-3.92-8.74-5.16-.75-.29-.39-1.49.12-2.22,2.18-3.16,1.65-6.07.56-9.75-1.18-4-3.48-4.21-6.28-4-10.86.8-21.46,3.58-32.35,4.3-1.84.12-4.27,1.1-5.27,2.5-4.19,5.91-10,3.34-15.28,3.37-1,0-2.5.2-2.86-1.37a3.86,3.86,0,0,1,1.21-3.62c2-2.12,4.76-2.5,7.31-2.78,5.83-.64,9.1-4.77,12.5-8.67,1.08-1.23-.41-3.28.84-5.06,2.49-3.54,4.56-7.31,9.12-8.67,2-.6,3.71-2.1,3.5-4.31-.53-5.42,4.15-5.15,6.17-4.21,5.43,2.53,9-.56,12.54-3.14s5.48-1.9,7.28,1.81a23,23,0,0,0,12.9,11.83c2.91,1.1,5,3.18,7.16,5.28,1.66,1.66,3.44,3.44,1.46,6-1.59,2.07-2.87,4.53-6.39,3.27A6.43,6.43,0,0,0,629.88,195.49Z" transform="translate(-3.07 -4.06)"/><path class="cls-17" d="M719.56,160.76c-.66-1.69-4.62-.67-3.22-3.72,2.19-4.76,6.95-4.23,12.23-5.47-3,2.67-2.86,5.89-5.56,7.73-2.2,1.49-.14,2.43,1.23,3,6.13,2.46,11.1,6.55,15.66,11.19,1.06,1.08,3.35,1.86,1.84,3.89-1.11,1.5-2.2,3.55-4.64,3.22-6.18-.86-12.45-.69-18.27-3.95-5.32-3-10.56.48-15.59,2.07-3.63,1.15-10.87,0-13.18-2.69-1.5-1.78-.39-3.85.07-5a43.09,43.09,0,0,1,9.32-15.13c2.6-2.64,4.9.49,7.34.7,2.17.19-.1,1.49-.29,2.34-.27,1.23,5.13,5.84,5.87,5.06C714.38,161.83,717.4,162.32,719.56,160.76Z" transform="translate(-3.07 -4.06)"/><path class="cls-17" d="M625.31,120.75c6.8-7.79,8-8.17,14.33-4.65-2.78-3.43-2.37-5.09,1.48-5.27a3.92,3.92,0,0,0,3.6-4.56c-1.44-4.82,1.38-6.49,4.65-8.46,1.33-.79,4.53-2,.91-4.07-2.91-1.64-5.63-3.36-4.54-7.22a11.79,11.79,0,0,1,7.22-8.3c3.08-1.08,5.22-2,5.76-5.67.43-2.93,8.29-5.12,10.69-3.26,1.44,1.11.41,2-.55,2.72-2.39,1.79-4.78,3.59-7.25,5.27-3.47,2.36-5.18,9.34-2.84,13.49,2.16,3.84,5.64,3.8,9.55,2.73,3.49-1,7.21-1.07,10.72-2a6.12,6.12,0,0,1,5.17.79c.73.47.23,1.18-.1,1.73a4.21,4.21,0,0,1-5.2,1.88c-3.57-1.13-6.84-.14-10.18.78-2.59.71-3.93,1.71-.75,3.56,2.16,1.24,2.58,2.89,1.48,5-.7,1.33-1.56,2.31-2.92.58-1.53-1.94-3.53-2.76-5.65-1.31s-2.37,4.13-1.66,6.34,1.39,4.21-1.55,5.12c-2.4.74-4.64,4.84-7.43.44-1.15-1.81-2.75-.52-4-.07-2.48.89-4.85,2.08-7.28,3.1-.75.31-2.07.86-2.27.61C633.39,116.05,629.84,118.56,625.31,120.75Z" transform="translate(-3.07 -4.06)"/><path class="cls-17" d="M783.74,179.58c5-4.21,5.75-3.94,8.07,1.92-1.74,1.88-5.31-1.2-6,1.56s2.42,4,4.33,5.48c1.29,1,3.19,10.08,2.39,11-1.31,1.47-9.91,1.5-11.94,0a3.9,3.9,0,0,1-1.08-1c-1.73-2.79-8.52-.59-6.9-5.58.85-2.63,1.47-6,3.73-8.39,1.13-1.19-.52-2-1.29-2.72-2.79-2.61-5.57-5.24-8.47-7.72-1.75-1.48-3.19-2.94-2.63-5.46a2.45,2.45,0,0,0-.46-2.31c-2.81-3.26-2.44-5.9,1.59-7.6a19.58,19.58,0,0,0,5.67-3.8c2.67-2.44,5.29-3.29,8.78-1.09,1.77,1.11,3.17,1.75,2.37,4-.56,1.59-.58,3.64-3.5,2.67s-3.48,2.15-4.52,3.69,1.31,2.09,2.14,3.13C778.88,171,785.26,172.13,783.74,179.58Z" transform="translate(-3.07 -4.06)"/><path class="cls-18" d="M809.26,47.79c2.44.12,4.1,1.29,4.57,3.74.84,4.4,3.15,5.39,7,3.26,1-.55,2.12-1.14,3.22-.18a1,1,0,0,1,.26.85c-.55,1.36-1.52,1.3-2.84,1s-3.15.53-1.7,2.07c2.39,2.54.63,4.34-.6,6.1-1.49,2.15-3.7,1.54-6.35.65,4.75-4,4-7.37-.51-10.7a9.48,9.48,0,0,1-3.53-6.37A1.07,1.07,0,0,1,809.26,47.79Z" transform="translate(-3.07 -4.06)"/></svg>